<svg width="92" height="17" viewBox="0 0 92 17" fill="none" xmlns="http://www.w3.org/2000/svg">
<path opacity="0.5" d="M0.245678 0.631592C1.12192 0.694092 1.22907 0.915092 1.22907 1.19609V15.8036C1.22907 16.0846 1.12136 16.3026 0.245117 16.3651V16.7451H7.47385V16.3651C6.59648 16.3026 6.49326 16.0846 6.49326 15.8036V1.19609C6.49326 0.915092 6.59648 0.694092 7.47385 0.631592V0.255092H0.245678V0.631592ZM24.1943 0.631592C24.6492 0.664092 24.9297 0.819592 24.9297 1.19609V9.56459C22.4755 7.15009 16.4085 1.38559 16.4085 1.03809C16.4085 0.853092 16.583 0.664092 17.3891 0.631592V0.255092H8.93519V0.631592C9.81256 0.694092 9.91634 0.915092 9.91634 1.19609V15.8036C9.91634 16.0846 9.81256 16.3026 8.93519 16.3651V16.7451H15.6024V16.3651C14.7228 16.3026 14.6184 16.0846 14.6184 15.8036V5.96009C23.8773 15.2091 24.7564 15.6151 24.7564 16.0226C24.7564 16.2416 24.5791 16.3656 23.9469 16.3656V16.7456H30.613V16.3656C29.7362 16.3031 29.6329 16.0851 29.6329 15.8041V1.19609C29.6329 0.915092 29.7362 0.694092 30.613 0.631592V0.255092H24.1943V0.631592ZM52.7693 8.50009C52.7693 3.01359 47.7906 0.0690918 41.8257 0.0690918C35.8615 0.0690918 30.8839 3.01359 30.8839 8.50009C30.8839 13.9841 35.8615 16.9306 41.8257 16.9306C47.7906 16.9306 52.7693 13.9846 52.7693 8.50009ZM41.8257 13.1066C38.778 13.1066 36.0724 11.4476 36.0724 8.50059C36.0724 5.55359 38.778 3.89259 41.8257 3.89259C44.8786 3.89259 47.578 5.55409 47.578 8.50059C47.578 11.4476 44.8786 13.1066 41.8257 13.1066ZM90.7714 15.4276C88.5965 10.6631 84.2837 1.28909 84.2837 1.03809C84.2837 0.727592 84.53 0.664092 84.9176 0.631592V0.255092H75.7569V0.631592C76.075 0.664092 76.4598 0.727592 76.4598 0.945092C76.4598 1.12009 71.388 12.9366 70.3828 15.2696L64.0897 8.15309L70.5449 1.00809C70.7199 0.819592 71.0363 0.664092 71.4211 0.631592V0.255092H63.3896V0.631592C63.6713 0.631592 64.1262 0.694092 64.1262 1.03809C64.1262 1.32159 61.4234 3.98709 60.8989 4.61259C60.5472 4.17609 57.6705 1.25659 57.6705 1.03809C57.6705 0.727592 57.9521 0.664092 58.5136 0.631592V0.255092H50.306V0.631592C50.5136 0.631592 50.7935 0.694092 51.1088 1.03809L57.634 8.37459L50.619 15.8341C50.2668 16.2081 50.0581 16.3651 49.8135 16.3651V16.7451H57.9134V16.3651C57.6329 16.3651 57.0731 16.3651 57.0731 16.0221C57.0731 15.5856 60.3357 12.5436 60.8243 11.9156C62.2991 13.6401 64.299 15.8656 64.299 16.2076C64.299 16.3646 63.9815 16.3646 63.6337 16.3646V16.7446H75.5112V16.3646C75.0204 16.3646 74.8796 16.2406 74.8796 16.0541C74.8796 15.8656 75.0933 15.4596 76.0026 13.1676H84.3146C84.4554 13.5766 85.5089 15.8656 85.5089 15.9901C85.5089 16.1806 85.3345 16.3331 84.843 16.3651V16.7451H91.7531V16.3651C91.3335 16.3651 91.1237 16.1806 90.7714 15.4276ZM76.8806 10.6631L80.0024 3.20159L83.4058 10.6631H76.8806Z" fill="#282B22"/>
</svg>
