<svg width="93" height="96" viewBox="0 0 93 96" fill="none" xmlns="http://www.w3.org/2000/svg">
<g clip-path="url(#clip0_0_1124)" filter="url(#filter0_d_0_1124)">
<path d="M72.7252 -121.892C72.1549 -121.892 71.694 -122.354 71.694 -122.924V-127.922H24.3029V-122.924C24.3029 -122.354 23.8419 -121.892 23.2716 -121.892C22.7013 -121.892 22.2404 -122.354 22.2404 -122.924V-140.843C22.2404 -143.874 24.7061 -146.342 27.7359 -146.342H68.2558C71.2876 -146.342 73.7554 -143.874 73.7554 -140.843V-122.924C73.7564 -122.354 73.2945 -121.892 72.7252 -121.892ZM24.3029 -129.985H71.6929V-140.843C71.6929 -142.738 70.1512 -144.28 68.2558 -144.28H27.7369C25.8436 -144.28 24.3039 -142.738 24.3039 -140.843V-129.985H24.3029ZM76.8739 -146.545H19.126C18.5557 -146.545 18.0947 -147.007 18.0947 -147.577C18.0947 -148.146 18.5557 -148.608 19.126 -148.608H76.8739C77.4442 -148.608 77.9052 -148.146 77.9052 -147.577C77.9052 -147.007 77.4442 -146.545 76.8739 -146.545ZM-357.828 -29.2149C-358.397 -29.2149 -358.859 -29.6769 -358.859 -30.2462V-39.7986H-370.653V-30.2462C-370.653 -29.6769 -371.115 -29.2149 -371.685 -29.2149C-372.254 -29.2149 -372.716 -29.6769 -372.716 -30.2462V-45.3499H-374.63C-375.199 -45.3499 -375.661 -45.8119 -375.661 -46.3811C-375.661 -46.9504 -375.199 -47.4124 -374.63 -47.4124H-358.751L-357.281 -60.6392V-67.0041C-357.281 -67.5733 -356.819 -68.0353 -356.25 -68.0353C-355.681 -68.0353 -355.219 -67.5733 -355.219 -67.0041V-60.5969C-355.219 -60.5722 -355.219 -60.5474 -355.22 -60.5227C-355.221 -60.5 -355.223 -60.4762 -355.226 -60.4536L-356.796 -46.3244V-30.2462C-356.797 -29.6759 -357.259 -29.2149 -357.828 -29.2149ZM-370.653 -41.8601H-358.859V-45.3499H-370.653V-41.8601ZM-385.126 -29.2149C-385.157 -29.2149 -385.188 -29.216 -385.218 -29.219H-392.052C-392.621 -29.219 -393.083 -29.681 -393.083 -30.2503C-393.083 -30.8195 -392.621 -31.2815 -392.052 -31.2815H-386.157V-54.824H-402.893C-403.463 -54.824 -403.925 -55.286 -403.925 -55.8552C-403.925 -56.4245 -403.463 -56.8865 -402.893 -56.8865H-367.353C-366.784 -56.8865 -366.322 -56.4245 -366.322 -55.8552C-366.322 -55.286 -366.784 -54.824 -367.353 -54.824H-384.095V-31.2815H-378.197C-377.628 -31.2815 -377.166 -30.8195 -377.166 -30.2503C-377.166 -29.681 -377.628 -29.219 -378.197 -29.219H-385.034C-385.064 -29.216 -385.095 -29.2149 -385.126 -29.2149ZM-398.567 -29.2149C-399.137 -29.2149 -399.599 -29.6769 -399.599 -30.2462V-39.7986H-411.391V-30.2462C-411.391 -29.6769 -411.853 -29.2149 -412.422 -29.2149C-412.991 -29.2149 -413.453 -29.6769 -413.453 -30.2462V-46.3244L-415.023 -60.4536C-415.026 -60.4773 -415.028 -60.502 -415.029 -60.5268C-415.031 -60.5495 -415.031 -60.5732 -415.031 -60.5969V-67.0041C-415.031 -67.5733 -414.569 -68.0353 -414 -68.0353C-413.431 -68.0353 -412.969 -67.5733 -412.969 -67.0041V-60.6392L-411.499 -47.4124H-395.622C-395.053 -47.4124 -394.591 -46.9504 -394.591 -46.3811C-394.591 -45.8119 -395.053 -45.3499 -395.622 -45.3499H-397.536V-30.2462C-397.536 -29.6759 -397.997 -29.2149 -398.567 -29.2149ZM-411.391 -41.8601H-399.599V-45.3499H-411.391V-41.8601ZM-273.772 -33.9783C-274.341 -33.9783 -274.803 -34.4403 -274.803 -35.0095V-37.8475H-298.501C-299.071 -37.8475 -299.532 -38.3085 -299.532 -38.8788V-58.6303H-322.198V-35.0095C-322.198 -34.4403 -322.66 -33.9783 -323.229 -33.9783C-323.8 -33.9783 -324.261 -34.4403 -324.261 -35.0095V-58.6303H-327.375C-327.944 -58.6303 -328.406 -59.0923 -328.406 -59.6616V-62.2407C-328.406 -62.81 -327.944 -63.272 -327.375 -63.272H-269.625C-269.056 -63.272 -268.594 -62.81 -268.594 -62.2407V-59.6616C-268.594 -59.0923 -269.056 -58.6303 -269.625 -58.6303H-272.74V-35.0095C-272.74 -34.4403 -273.201 -33.9783 -273.772 -33.9783ZM-297.47 -39.91H-274.803V-48.2374H-297.47V-39.91ZM-297.47 -50.2999H-274.803V-58.6303H-297.47V-50.2999ZM-273.772 -60.6928H-270.656V-61.2095H-326.344V-60.6928H-273.772ZM-284.785 -43.0419H-287.479C-288.049 -43.0419 -288.51 -43.5039 -288.51 -44.0732C-288.51 -44.6435 -288.049 -45.1044 -287.479 -45.1044H-284.785C-284.216 -45.1044 -283.754 -44.6435 -283.754 -44.0732C-283.754 -43.5039 -284.216 -43.0419 -284.785 -43.0419ZM-284.785 -53.4359H-287.479C-288.049 -53.4359 -288.51 -53.8979 -288.51 -54.4671C-288.51 -55.0374 -288.049 -55.4984 -287.479 -55.4984H-284.785C-284.216 -55.4984 -283.754 -55.0374 -283.754 -54.4671C-283.754 -53.8979 -284.216 -53.4359 -284.785 -53.4359ZM-187.147 -33.9783C-187.716 -33.9783 -188.178 -34.4403 -188.178 -35.0095V-48.2374H-235.573V-35.0095C-235.573 -34.4403 -236.035 -33.9783 -236.604 -33.9783C-237.174 -33.9783 -237.636 -34.4403 -237.636 -35.0095V-58.6303H-240.75C-241.319 -58.6303 -241.781 -59.0923 -241.781 -59.6616V-62.2407C-241.781 -62.81 -241.319 -63.272 -240.75 -63.272H-183C-182.431 -63.272 -181.969 -62.81 -181.969 -62.2407V-59.6616C-181.969 -59.0923 -182.431 -58.6303 -183 -58.6303H-186.115V-35.0095C-186.115 -34.4403 -186.576 -33.9783 -187.147 -33.9783ZM-210.845 -50.2999H-188.178V-58.6303H-210.845V-50.2999ZM-235.572 -50.2999H-212.906V-58.6303H-235.572V-50.2999ZM-187.147 -60.6928H-184.031V-61.2095H-239.719V-60.6928H-187.147ZM-198.16 -53.4359H-200.854C-201.423 -53.4359 -201.885 -53.8979 -201.885 -54.4671C-201.885 -55.0364 -201.423 -55.4984 -200.854 -55.4984H-198.16C-197.591 -55.4984 -197.129 -55.0364 -197.129 -54.4671C-197.129 -53.8979 -197.591 -53.4359 -198.16 -53.4359ZM-222.892 -53.5947H-225.588C-226.157 -53.5947 -226.619 -54.0567 -226.619 -54.626C-226.619 -55.1952 -226.157 -55.6572 -225.588 -55.6572H-222.892C-222.323 -55.6572 -221.861 -55.1952 -221.861 -54.626C-221.861 -54.0567 -222.322 -53.5947 -222.892 -53.5947ZM-113.36 -18.7189C-113.93 -18.7189 -114.391 -19.1809 -114.391 -19.7501V-22.8655H-136.112V-19.7501C-136.112 -19.1809 -136.573 -18.7189 -137.143 -18.7189C-137.714 -18.7189 -138.175 -19.1809 -138.175 -19.7501V-39.2211H-141.936C-142.506 -39.2211 -142.967 -39.6831 -142.967 -40.2524C-142.917 -42.2355 -141.349 -43.7638 -139.393 -43.7638H-137.914L-137.906 -66.3368C-137.634 -73.1926 -132.076 -78.5314 -125.252 -78.5314C-118.424 -78.5314 -112.866 -73.1926 -112.598 -66.3771L-112.585 -43.7638H-111.105C-109.181 -43.7638 -107.577 -42.2015 -107.531 -40.2823C-107.531 -40.2741 -107.531 -40.2658 -107.531 -40.2576V-40.2524C-107.531 -39.6831 -107.992 -39.2211 -108.562 -39.2211H-112.326V-19.7501C-112.328 -19.1809 -112.789 -18.7189 -113.36 -18.7189ZM-136.112 -24.928H-114.391V-31.0444H-136.112V-24.928ZM-136.112 -33.1058H-114.391V-39.2211H-136.112V-33.1058ZM-113.36 -41.2836H-110.067C-110.339 -41.5415 -110.706 -41.7013 -111.107 -41.7013H-139.395C-139.795 -41.7013 -140.162 -41.5415 -140.435 -41.2836H-113.36ZM-135.852 -43.7638H-114.648L-114.659 -66.3358C-114.883 -72.0005 -119.536 -76.4689 -125.251 -76.4689C-130.963 -76.4689 -135.617 -72.0005 -135.844 -66.2956L-135.852 -43.7638ZM-123.955 -26.9513H-126.544C-127.115 -26.9513 -127.576 -27.4133 -127.576 -27.9826C-127.576 -28.5518 -127.115 -29.0138 -126.544 -29.0138H-123.955C-123.385 -29.0138 -122.924 -28.5518 -122.924 -27.9826C-122.924 -27.4133 -123.385 -26.9513 -123.955 -26.9513ZM-123.955 -35.1343H-126.544C-127.115 -35.1343 -127.576 -35.5963 -127.576 -36.1656C-127.576 -36.7348 -127.115 -37.1968 -126.544 -37.1968H-123.955C-123.385 -37.1968 -122.924 -36.7348 -122.924 -36.1656C-122.924 -35.5963 -123.385 -35.1343 -123.955 -35.1343ZM-131.097 -53.2369C-131.361 -53.2369 -131.625 -53.3379 -131.826 -53.539C-132.23 -53.9422 -132.23 -54.594 -131.826 -54.9972L-120.131 -66.6926C-119.728 -67.0958 -119.076 -67.0958 -118.673 -66.6926C-118.27 -66.2894 -118.27 -65.6376 -118.673 -65.2344L-130.368 -53.539C-130.569 -53.3369 -130.833 -53.2369 -131.097 -53.2369ZM-126.003 -53.9587C-126.267 -53.9587 -126.531 -54.0598 -126.732 -54.2609C-127.135 -54.6641 -127.135 -55.3169 -126.732 -55.7201L-120.853 -61.5962C-120.45 -61.9984 -119.798 -61.9984 -119.395 -61.5962C-118.991 -61.194 -118.991 -60.5402 -119.395 -60.137L-125.274 -54.2609C-125.476 -54.0598 -125.74 -53.9587 -126.003 -53.9587ZM-130.375 -58.3333C-130.639 -58.3333 -130.903 -58.4344 -131.104 -58.6355C-131.508 -59.0377 -131.508 -59.6904 -131.104 -60.0937L-125.23 -65.9697C-124.827 -66.3729 -124.175 -66.3729 -123.772 -65.9697C-123.369 -65.5675 -123.369 -64.9147 -123.772 -64.5115L-129.646 -58.6355C-129.847 -58.4344 -130.111 -58.3333 -130.375 -58.3333ZM-52.8078 -18.7189C-52.9439 -18.7189 -53.0832 -18.7457 -53.2162 -18.8034C-53.739 -19.0303 -53.9783 -19.6377 -53.7534 -20.1595L-53.0089 -21.8786H-54.6476C-55.2178 -21.8786 -55.6788 -22.3406 -55.6788 -22.9099V-44.9518C-55.6788 -45.553 -55.1385 -46.0253 -54.5558 -45.9789H-45.9098V-58.0992H-54.6476C-54.9497 -58.0992 -55.2354 -58.2312 -55.4324 -58.4612C-55.6273 -58.6911 -55.7129 -58.9943 -55.6664 -59.2924L-52.7604 -77.662C-52.681 -78.1632 -52.2489 -78.5314 -51.7415 -78.5314H-38.0269C-37.5195 -78.5314 -37.0885 -78.1632 -37.0091 -77.662L-34.0968 -59.2924C-34.0494 -58.9943 -34.135 -58.6901 -34.3309 -58.4602C-34.5269 -58.2302 -34.8135 -58.0982 -35.1157 -58.0982H-37.4174V-53.1946C-37.4174 -52.6253 -37.8784 -52.1633 -38.4487 -52.1633C-39.019 -52.1633 -39.4799 -52.6253 -39.4799 -53.1946V-58.0982H-43.8483V-45.9779H-22.6943C-22.1106 -46.0243 -21.5713 -45.552 -21.5713 -44.9508V-22.9088C-21.5713 -22.3396 -22.0323 -21.8776 -22.6025 -21.8776H-24.1989L-23.4533 -20.1595C-23.2254 -19.6367 -23.4667 -19.0293 -23.9885 -18.8034C-24.5124 -18.5776 -25.1198 -18.8168 -25.3446 -19.3397L-26.447 -21.8786H-50.7608L-51.8591 -19.3407C-52.0282 -18.9519 -52.4087 -18.7189 -52.8078 -18.7189ZM-25.7478 -23.9411H-23.6338V-32.8975H-53.6163V-23.9411H-51.462C-51.4455 -23.9421 -51.4311 -23.9421 -51.4146 -23.9411H-25.7942C-25.7787 -23.9421 -25.7623 -23.9421 -25.7478 -23.9411ZM-53.6163 -34.96H-23.6338V-43.9175H-53.6163V-34.96ZM-38.4477 -60.1627H-36.3212L-38.9066 -76.4689H-50.8598L-53.44 -60.1617H-38.4477V-60.1627ZM-36.8812 -27.3834H-40.374C-40.9443 -27.3834 -41.4053 -27.8454 -41.4053 -28.4147C-41.4053 -28.985 -40.9443 -29.4459 -40.374 -29.4459H-36.8812C-36.3109 -29.4459 -35.8499 -28.985 -35.8499 -28.4147C-35.8499 -27.8465 -36.3109 -27.3834 -36.8812 -27.3834ZM-36.8812 -38.4116H-40.374C-40.9443 -38.4116 -41.4053 -38.8736 -41.4053 -39.4429C-41.4053 -40.0131 -40.9443 -40.4741 -40.374 -40.4741H-36.8812C-36.3109 -40.4741 -35.8499 -40.0131 -35.8499 -39.4429C-35.8499 -38.8736 -36.3109 -38.4116 -36.8812 -38.4116ZM75.2559 -36.2398C74.8568 -36.2398 74.4773 -36.4729 74.3092 -36.8616L73.3439 -39.0861H48.002C48 -39.0861 47.9999 -39.0861 47.9979 -39.0861H22.6951L21.734 -36.8616C21.5082 -36.3409 20.9028 -36.0985 20.379 -36.3244C19.8561 -36.5502 19.6158 -37.1576 19.8417 -37.6805L20.4491 -39.085H19.126C18.5557 -39.085 18.0947 -39.547 18.0947 -40.1163V-59.9761C18.0947 -60.568 18.6258 -61.0403 19.1909 -61.0053H47.934C47.9556 -61.0073 47.9803 -61.0135 47.9999 -61.0073C48.0257 -61.0135 48.0443 -61.0073 48.0659 -61.0053H76.809C77.3699 -61.0403 77.9052 -60.568 77.9052 -59.9761V-40.1163C77.9052 -39.547 77.4442 -39.085 76.8739 -39.085H75.5921L76.2005 -37.6815C76.4274 -37.1586 76.1871 -36.5512 75.6642 -36.3254C75.5312 -36.2676 75.392 -36.2398 75.2559 -36.2398ZM74.0431 -41.1475H75.8427V-49.016H49.0333V-41.1475H73.9977C74.0122 -41.1486 74.0287 -41.1486 74.0431 -41.1475ZM22.0403 -41.1475H46.9666V-49.016H20.1572V-41.1475H21.9949C22.0083 -41.1486 22.0248 -41.1486 22.0403 -41.1475ZM49.0333 -51.0785H75.8427V-58.9428H49.0333V-51.0785ZM20.1572 -51.0785H46.9666V-58.9428H20.1572V-51.0785ZM64.0111 -44.0495H60.8638C60.2935 -44.0495 59.8325 -44.5115 59.8325 -45.0807C59.8325 -45.65 60.2935 -46.112 60.8638 -46.112H64.0111C64.5814 -46.112 65.0424 -45.65 65.0424 -45.0807C65.0424 -44.5115 64.5814 -44.0495 64.0111 -44.0495ZM35.131 -44.0495H31.9846C31.4144 -44.0495 30.9534 -44.5115 30.9534 -45.0807C30.9534 -45.65 31.4144 -46.112 31.9846 -46.112H35.132C35.7023 -46.112 36.1633 -45.65 36.1633 -45.0807C36.1633 -44.5115 35.7013 -44.0495 35.131 -44.0495ZM64.0111 -53.9804H60.8638C60.2935 -53.9804 59.8325 -54.4424 59.8325 -55.0117C59.8325 -55.5809 60.2935 -56.0429 60.8638 -56.0429H64.0111C64.5814 -56.0429 65.0424 -55.5809 65.0424 -55.0117C65.0424 -54.4424 64.5814 -53.9804 64.0111 -53.9804ZM35.131 -53.9804H31.9846C31.4144 -53.9804 30.9534 -54.4424 30.9534 -55.0117C30.9534 -55.5809 31.4144 -56.0429 31.9846 -56.0429H35.132C35.7023 -56.0429 36.1633 -55.5809 36.1633 -55.0117C36.1633 -54.4424 35.7013 -53.9804 35.131 -53.9804ZM-412.339 50.3821C-412.476 50.3821 -412.615 50.3553 -412.748 50.2976C-413.271 50.0707 -413.511 49.4633 -413.284 48.9415L-412.677 47.5379H-414C-414.569 47.5379 -415.031 47.077 -415.031 46.5067V26.6479C-415.031 26.0776 -414.569 25.6167 -414 25.6167H-385.126C-385.123 25.6167 -385.123 25.6167 -385.122 25.6167H-356.25C-355.681 25.6167 -355.219 26.0776 -355.219 26.6479V46.5056C-355.219 47.0759 -355.681 47.5369 -356.25 47.5369H-357.532L-356.923 48.9394C-356.697 49.4622 -356.937 50.0697 -357.46 50.2955C-357.98 50.5244 -358.589 50.2831 -358.816 49.7603L-359.781 47.5359H-385.122C-385.123 47.5349 -385.123 47.5349 -385.126 47.5359H-410.429L-411.392 49.7592C-411.56 50.149 -411.94 50.3821 -412.339 50.3821ZM-359.081 45.4744H-357.281V27.6792H-384.091V45.4744H-359.127C-359.112 45.4744 -359.096 45.4744 -359.081 45.4744ZM-411.083 45.4744H-386.157V37.608H-412.969V45.4744H-411.129C-411.114 45.4744 -411.098 45.4744 -411.083 45.4744ZM-412.969 35.5455H-386.157V27.6792H-412.969V35.5455ZM-397.99 42.5735H-401.137C-401.706 42.5735 -402.168 42.1125 -402.168 41.5422C-402.168 40.972 -401.706 40.511 -401.137 40.511H-397.99C-397.421 40.511 -396.959 40.972 -396.959 41.5422C-396.959 42.1125 -397.421 42.5735 -397.99 42.5735ZM-381.912 39.1786C-382.481 39.1786 -382.943 38.7177 -382.943 38.1474V34.9989C-382.943 34.4287 -382.481 33.9677 -381.912 33.9677C-381.342 33.9677 -380.88 34.4287 -380.88 34.9989V38.1474C-380.88 38.7166 -381.342 39.1786 -381.912 39.1786ZM-397.99 32.6395H-401.137C-401.706 32.6395 -402.168 32.1785 -402.168 31.6082C-402.168 31.0379 -401.706 30.577 -401.137 30.577H-397.99C-397.421 30.577 -396.959 31.0379 -396.959 31.6082C-396.959 32.1785 -397.421 32.6395 -397.99 32.6395ZM-272.478 54.6206C-273.048 54.6206 -273.51 54.1596 -273.51 53.5893V53.2284H-298.496C-298.497 53.2284 -298.497 53.2284 -298.5 53.2284H-323.449V53.5893C-323.449 54.1596 -323.911 54.6206 -324.48 54.6206C-325.05 54.6206 -325.512 54.1596 -325.512 53.5893V53.2284H-327.282C-327.873 53.2933 -328.405 52.8025 -328.405 52.2012V22.4105C-328.405 21.8402 -327.943 21.3792 -327.374 21.3792H-269.624C-269.055 21.3792 -268.593 21.8402 -268.593 22.4105C-268.593 22.4414 -268.594 22.4724 -268.597 22.5023V32.2486C-268.595 32.2785 -268.593 32.3094 -268.593 32.3404V52.1982C-268.593 52.7684 -269.055 53.2294 -269.624 53.2294H-271.446V53.5903C-271.447 54.1596 -271.909 54.6206 -272.478 54.6206ZM-297.466 51.1669H-270.656V43.2995H-297.466V51.1669ZM-326.344 51.1669H-299.532V43.2995H-326.344V51.1669ZM-297.466 41.237H-270.656V32.4322C-270.658 32.4023 -270.66 32.3713 -270.66 32.3404V23.4417H-297.466V41.237ZM-326.344 41.237H-299.528V23.4417H-326.344V41.237ZM-282.487 48.2681H-285.634C-286.203 48.2681 -286.665 47.8071 -286.665 47.2368C-286.665 46.6665 -286.203 46.2056 -285.634 46.2056H-282.487C-281.917 46.2056 -281.456 46.6665 -281.456 47.2368C-281.456 47.8071 -281.917 48.2681 -282.487 48.2681ZM-311.365 48.2681H-314.512C-315.081 48.2681 -315.543 47.8071 -315.543 47.2368C-315.543 46.6665 -315.081 46.2056 -314.512 46.2056H-311.365C-310.796 46.2056 -310.334 46.6665 -310.334 47.2368C-310.334 47.8071 -310.796 48.2681 -311.365 48.2681ZM-272.68 34.9402C-273.249 34.9402 -273.711 34.4792 -273.711 33.9089V30.7646C-273.711 30.1944 -273.249 29.7334 -272.68 29.7334C-272.11 29.7334 -271.648 30.1944 -271.648 30.7646V33.9089C-271.648 34.4792 -272.11 34.9402 -272.68 34.9402ZM-324.339 34.9402C-324.908 34.9402 -325.37 34.4792 -325.37 33.9089V30.7646C-325.37 30.1944 -324.908 29.7334 -324.339 29.7334C-323.77 29.7334 -323.308 30.1944 -323.308 30.7646V33.9089C-323.308 34.4792 -323.769 34.9402 -324.339 34.9402ZM-185.854 59.9377C-186.423 59.9377 -186.885 59.4767 -186.885 58.9064V58.5403H-211.871C-211.872 58.5403 -211.872 58.5403 -211.875 58.5403H-236.824V58.9064C-236.824 59.4767 -237.286 59.9377 -237.855 59.9377C-238.425 59.9377 -238.887 59.4767 -238.887 58.9064V58.5403H-240.657C-241.245 58.6074 -241.78 58.1144 -241.78 57.5132V47.5802C-241.78 47.0099 -241.318 46.549 -240.749 46.549H-236.534V43.9038H-240.75C-241.319 43.9038 -241.781 43.4428 -241.781 42.8726C-241.781 42.3023 -241.319 41.8413 -240.75 41.8413H-216.062L-215.367 39.5849H-230.389C-230.958 39.5849 -231.42 39.124 -231.42 38.5537V17.0934C-231.42 16.5231 -230.958 16.0621 -230.389 16.0621H-193.361C-192.792 16.0621 -192.33 16.5231 -192.33 17.0934V38.5547C-192.33 39.125 -192.792 39.586 -193.361 39.586H-208.385L-207.69 41.8423H-183C-182.431 41.8423 -181.969 42.3033 -181.969 42.8736C-181.969 43.4439 -182.431 43.9048 -183 43.9048H-187.214V46.55H-183C-182.431 46.55 -181.969 47.011 -181.969 47.5812V57.5101C-181.969 58.0804 -182.431 58.5414 -183 58.5414H-184.822V58.9075C-184.822 59.4767 -185.284 59.9377 -185.854 59.9377ZM-210.845 56.4778H-184.031V48.6115H-210.845V56.4778ZM-239.719 56.4778H-212.907V48.6115H-239.719V56.4778ZM-234.473 46.549H-189.276V43.9038H-208.428C-208.442 43.9048 -208.457 43.9048 -208.475 43.9038H-215.275C-215.292 43.9048 -215.307 43.9048 -215.322 43.9038H-234.472V46.549H-234.473ZM-213.903 41.8413H-209.849L-210.544 39.5849H-213.208L-213.903 41.8413ZM-209.758 37.5224H-194.392V18.1246H-229.358V37.5235H-213.994C-213.977 37.5245 -213.961 37.5245 -213.947 37.5235H-209.805C-209.79 37.5235 -209.773 37.5235 -209.758 37.5224ZM-195.862 53.58H-199.009C-199.578 53.58 -200.04 53.119 -200.04 52.5488C-200.04 51.9785 -199.578 51.5175 -199.009 51.5175H-195.862C-195.293 51.5175 -194.831 51.9785 -194.831 52.5488C-194.831 53.119 -195.293 53.58 -195.862 53.58ZM-224.74 53.58H-227.887C-228.456 53.58 -228.918 53.119 -228.918 52.5488C-228.918 51.9785 -228.456 51.5175 -227.887 51.5175H-224.74C-224.171 51.5175 -223.709 51.9785 -223.709 52.5488C-223.709 53.119 -224.171 53.58 -224.74 53.58ZM-115.624 51.7475C-116.195 51.7475 -116.656 51.2865 -116.656 50.7162V48.6094H-133.85V50.7162C-133.85 51.2865 -134.311 51.7475 -134.881 51.7475C-135.451 51.7475 -135.912 51.2865 -135.912 50.7162V48.6094H-153.093V50.6915C-153.093 51.2618 -153.554 51.7227 -154.124 51.7227C-154.694 51.7227 -155.155 51.2618 -155.155 50.6915V25.2836C-155.155 24.7133 -154.694 24.2523 -154.124 24.2523H-96.3761C-95.8058 24.2523 -95.3448 24.7133 -95.3448 25.2836V50.6874C-95.3448 51.2577 -95.8058 51.7186 -96.3761 51.7186C-96.9464 51.7186 -97.4073 51.2577 -97.4073 50.6874V48.6094H-114.593V50.7162C-114.593 51.2865 -115.054 51.7475 -115.624 51.7475ZM-114.593 46.5469H-97.4073V32.5714H-114.593V46.5469ZM-133.85 46.5469H-116.656V29.4787H-133.85V46.5469ZM-153.093 46.5469H-135.912V32.5714H-153.093V46.5469ZM-114.593 30.5089H-97.4073V26.3148H-114.593V30.5089ZM-153.093 30.5089H-135.912V26.3148H-153.093V30.5089ZM-133.85 27.4162H-116.656V26.3148H-133.85V27.4162ZM-113.316 41.6062C-113.887 41.6062 -114.348 41.1452 -114.348 40.5749V38.5434C-114.348 37.9731 -113.887 37.5121 -113.316 37.5121C-112.746 37.5121 -112.285 37.9731 -112.285 38.5434V40.5749C-112.285 41.1452 -112.746 41.6062 -113.316 41.6062ZM-137.188 41.6062C-137.758 41.6062 -138.219 41.1452 -138.219 40.5749V38.5434C-138.219 37.9731 -137.758 37.5121 -137.188 37.5121C-136.617 37.5121 -136.157 37.9731 -136.157 38.5434V40.5749C-136.157 41.1452 -136.617 41.6062 -137.188 41.6062ZM-104.949 29.2136H-107.046C-107.617 29.2136 -108.078 28.7527 -108.078 28.1824C-108.078 27.6121 -107.617 27.1511 -107.046 27.1511H-104.949C-104.379 27.1511 -103.918 27.6121 -103.918 28.1824C-103.918 28.7527 -104.38 29.2136 -104.949 29.2136ZM-143.453 29.2136H-145.546C-146.116 29.2136 -146.577 28.7527 -146.577 28.1824C-146.577 27.6121 -146.116 27.1511 -145.546 27.1511H-143.453C-142.882 27.1511 -142.421 27.6121 -142.421 28.1824C-142.421 28.7527 -142.883 29.2136 -143.453 29.2136ZM-24.6341 67.9051H-52.6212C-53.1914 67.9051 -53.6524 67.4441 -53.6524 66.8739V28.3752C-53.6524 28.3732 -53.6524 28.3732 -53.6524 28.3711V9.12593C-53.6524 8.55565 -53.1914 8.09468 -52.6212 8.09468H-24.63C-24.0597 8.09468 -23.5987 8.55565 -23.5987 9.12593C-23.5987 9.15688 -23.5997 9.18779 -23.6028 9.2177V28.2876C-23.5997 28.3175 -23.5987 28.3484 -23.5987 28.3794C-23.5987 28.4103 -23.5997 28.4412 -23.6028 28.4711V47.5369C-23.5997 47.5668 -23.5987 47.5977 -23.5987 47.6287C-23.5987 47.6596 -23.5997 47.6906 -23.6028 47.7205V66.8739C-23.6028 67.4441 -24.0638 67.9051 -24.6341 67.9051ZM-51.5889 65.8426H-25.6643V48.6599H-51.5889V65.8426ZM-51.5889 46.5933H-25.6643V29.4106H-51.5889V46.5933ZM-51.5889 27.3399H-25.6643V10.1572H-51.5889V27.3399ZM-49.679 59.8098C-50.2493 59.8098 -50.7103 59.3488 -50.7103 58.7785V55.7281C-50.7103 55.1579 -50.2493 54.6969 -49.679 54.6969C-49.1087 54.6969 -48.6478 55.1579 -48.6478 55.7281V58.7785C-48.6478 59.3488 -49.1087 59.8098 -49.679 59.8098ZM-49.679 40.5564C-50.2493 40.5564 -50.7103 40.0954 -50.7103 39.5251V36.4788C-50.7103 35.9085 -50.2493 35.4475 -49.679 35.4475C-49.1087 35.4475 -48.6478 35.9085 -48.6478 36.4788V39.5251C-48.6478 40.0954 -49.1087 40.5564 -49.679 40.5564ZM-49.679 21.304C-50.2493 21.304 -50.7103 20.843 -50.7103 20.2727V17.2264C-50.7103 16.6561 -50.2493 16.1951 -49.679 16.1951C-49.1087 16.1951 -48.6478 16.6561 -48.6478 17.2264V20.2727C-48.6478 20.8419 -49.1087 21.304 -49.679 21.304ZM75.9891 67.9051H48.002C48 67.9051 47.9999 67.9051 47.9979 67.9051H20.0108C19.4405 67.9051 18.9796 67.4441 18.9796 66.8739V9.12593C18.9796 8.55565 19.4405 8.09468 20.0108 8.09468H75.9881C76.5583 8.09468 77.0193 8.55565 77.0193 9.12593V28.3711C77.0193 28.3732 77.0193 28.3732 77.0193 28.3752V66.8739C77.0204 67.4441 76.5583 67.9051 75.9891 67.9051ZM49.0333 65.8426H74.9579V28.3752C74.9579 28.3732 74.9579 28.3732 74.9579 28.3711V10.1572H49.0333V28.3711C49.0333 28.3732 49.0333 28.3732 49.0333 28.3752V65.8426ZM21.0421 65.8426H46.9666V48.6558H21.0421V65.8426ZM21.0421 46.5933H46.9666V28.3752C46.9666 28.3732 46.9666 28.3732 46.9666 28.3711V10.1572H21.0421V46.5933ZM44.7412 59.8098C44.1709 59.8098 43.7099 59.3488 43.7099 58.7785V55.7281C43.7099 55.1579 44.1709 54.6969 44.7412 54.6969C45.3115 54.6969 45.7724 55.1579 45.7724 55.7281V58.7785C45.7724 59.3488 45.3115 59.8098 44.7412 59.8098ZM51.2587 40.5564C50.6884 40.5564 50.2274 40.0954 50.2274 39.5251V36.4788C50.2274 35.9085 50.6884 35.4475 51.2587 35.4475C51.829 35.4475 52.2899 35.9085 52.2899 36.4788V39.5251C52.2899 40.0954 51.829 40.5564 51.2587 40.5564ZM44.7412 40.5564C44.1709 40.5564 43.7099 40.0954 43.7099 39.5251V36.4788C43.7099 35.9085 44.1709 35.4475 44.7412 35.4475C45.3115 35.4475 45.7724 35.9085 45.7724 36.4788V39.5251C45.7724 40.0954 45.3115 40.5564 44.7412 40.5564ZM-357.135 154.53H-385.122C-385.124 154.53 -385.124 154.53 -385.126 154.53H-413.115C-413.684 154.53 -414.146 154.069 -414.146 153.499V95.7509C-414.146 95.1807 -413.684 94.7197 -413.115 94.7197H-357.136C-356.567 94.7197 -356.105 95.1807 -356.105 95.7509V114.996C-356.105 114.998 -356.105 114.998 -356.105 115V153.499C-356.104 154.069 -356.567 154.53 -357.135 154.53ZM-384.091 152.468H-358.166V115C-358.166 114.998 -358.166 114.998 -358.166 114.996V96.7822H-384.091V114.996C-384.091 114.998 -384.091 114.998 -384.091 115V152.468ZM-412.084 152.468H-386.157V115C-386.157 114.998 -386.157 114.998 -386.157 114.996V96.7822H-412.084V152.468ZM-371.131 144.832C-375.964 144.832 -379.897 140.9 -379.897 136.068V113.184C-379.897 108.351 -375.964 104.419 -371.131 104.419C-366.296 104.419 -362.361 108.351 -362.361 113.184L-362.365 136.068C-362.365 140.9 -366.297 144.832 -371.131 144.832ZM-371.131 106.48C-374.827 106.48 -377.834 109.487 -377.834 113.183V136.067C-377.834 139.763 -374.827 142.769 -371.131 142.769C-367.435 142.769 -364.428 139.763 -364.428 136.067L-364.424 113.183C-364.424 109.487 -367.433 106.48 -371.131 106.48ZM-381.865 127.181C-382.435 127.181 -382.896 126.72 -382.896 126.15V123.104C-382.896 122.534 -382.435 122.073 -381.865 122.073C-381.296 122.073 -380.834 122.534 -380.834 123.104V126.15C-380.834 126.72 -381.296 127.181 -381.865 127.181ZM-388.383 127.181C-388.952 127.181 -389.414 126.72 -389.414 126.15V123.104C-389.414 122.534 -388.952 122.073 -388.383 122.073C-387.812 122.073 -387.351 122.534 -387.351 123.104V126.15C-387.351 126.72 -387.812 127.181 -388.383 127.181ZM-181.973 109.507C-181.973 108.936 -182.435 108.476 -183.004 108.476C-183.574 108.476 -184.035 108.936 -184.035 109.507V120.792H-184.106C-184.204 118.526 -186.063 116.711 -188.353 116.711H-193.078C-195.367 116.711 -197.225 118.526 -197.322 120.792H-235.311C-237.011 120.792 -238.56 121.451 -239.716 122.526V117.672C-239.716 117.102 -240.177 116.641 -240.747 116.641C-241.316 116.641 -241.778 117.102 -241.778 117.672L-241.781 138.241C-241.781 138.792 -241.349 139.242 -240.806 139.272V139.743C-240.806 140.313 -240.345 140.774 -239.774 140.774C-239.205 140.774 -238.743 140.313 -238.743 139.743V139.272H-185.01V139.743C-185.01 140.313 -184.548 140.774 -183.979 140.774C-183.408 140.774 -182.947 140.313 -182.947 139.743V139.272C-182.403 139.244 -181.97 138.792 -181.97 138.241L-181.973 109.507ZM-193.078 118.774H-188.353C-187.203 118.774 -186.257 119.657 -186.159 120.779H-195.269C-195.172 119.658 -194.227 118.774 -193.078 118.774ZM-235.312 122.854H-184.035V126.227H-239.597C-239.132 124.295 -237.387 122.854 -235.312 122.854ZM-239.719 137.209V128.291H-184.033L-184.031 137.209H-239.719ZM-95.3489 130.943C-95.3489 130.373 -95.8109 129.912 -96.3802 129.912H-119.064V120.383C-119.064 119.813 -119.525 119.352 -120.095 119.352H-130.408C-130.979 119.352 -131.44 119.813 -131.44 120.383V129.912H-136.164C-135.583 128.085 -137.34 120.361 -136.794 118.896C-136.675 118.58 -136.72 118.226 -136.912 117.948C-137.105 117.669 -137.421 117.504 -137.759 117.504H-139.149V113.982H-133.648C-133.347 113.982 -133.063 113.851 -132.867 113.625C-132.671 113.398 -132.583 113.097 -132.628 112.8L-134.575 99.6367C-134.649 99.1314 -135.083 98.756 -135.595 98.756H-144.767C-145.279 98.756 -145.713 99.1303 -145.787 99.6367L-147.73 112.8C-147.774 113.097 -147.687 113.398 -147.491 113.625C-147.296 113.851 -147.01 113.982 -146.71 113.982H-141.213V117.504H-142.603C-142.941 117.504 -143.258 117.669 -143.45 117.948C-143.643 118.226 -143.687 118.58 -143.568 118.896C-143.022 120.362 -144.776 128.085 -144.196 129.912H-154.124C-154.694 129.912 -155.155 130.373 -155.155 130.943V147.958C-155.155 148.508 -154.724 148.958 -154.182 148.987V149.461C-154.182 150.031 -153.721 150.492 -153.15 150.492C-152.58 150.492 -152.119 150.031 -152.119 149.461V148.989H-98.386V149.461C-98.386 150.031 -97.925 150.492 -97.3547 150.492C-96.7845 150.492 -96.3235 150.031 -96.3235 149.461V148.988C-96.0698 148.975 -95.8285 148.869 -95.648 148.687C-95.4541 148.493 -95.3459 148.231 -95.3459 147.958L-95.3489 130.943ZM-129.377 121.415H-121.126V129.912H-129.377V121.415ZM-145.515 111.921L-143.876 100.821H-136.484L-134.843 111.921H-145.515ZM-141.299 119.568H-139.061C-139.263 121.204 -137.585 128.57 -138.412 129.912H-141.947C-142.773 128.572 -141.097 121.205 -141.299 119.568ZM-126.287 146.927H-153.093V131.975H-126.287V146.927ZM-124.225 146.927V131.975H-97.4114L-97.4073 146.927H-124.225Z" fill="white"/>
</g>
<defs>
<filter id="filter0_d_0_1124" x="0" y="0" width="96" height="96" filterUnits="userSpaceOnUse" color-interpolation-filters="sRGB">
<feFlood flood-opacity="0" result="BackgroundImageFix"/>
<feColorMatrix in="SourceAlpha" type="matrix" values="0 0 0 0 0 0 0 0 0 0 0 0 0 0 0 0 0 0 127 0" result="hardAlpha"/>
<feOffset dy="10"/>
<feGaussianBlur stdDeviation="7.5"/>
<feComposite in2="hardAlpha" operator="out"/>
<feColorMatrix type="matrix" values="0 0 0 0 0 0 0 0 0 0 0 0 0 0 0 0 0 0 0.25 0"/>
<feBlend mode="normal" in2="BackgroundImageFix" result="effect1_dropShadow_0_1124"/>
<feBlend mode="normal" in="SourceGraphic" in2="effect1_dropShadow_0_1124" result="shape"/>
</filter>
<clipPath id="clip0_0_1124">
<rect width="66" height="66" fill="white" transform="translate(15 5)"/>
</clipPath>
</defs>
</svg>
