<svg width="91" height="93" viewBox="0 0 91 93" fill="none" xmlns="http://www.w3.org/2000/svg">
<g filter="url(#filter0_d_0_1167)">
<path d="M71.6745 5H19.3264C17.3862 5 15.8073 6.57795 15.8073 8.51816V60.8672C15.8073 62.8074 17.3862 64.3834 19.3254 64.3834H21.0294V67.0461C21.0294 67.5728 21.4566 68 21.9842 68H30.2953C30.8229 68 31.2501 67.5728 31.2501 67.0461V64.3834H59.7478V67.0461C59.7478 67.5728 60.175 68 60.7026 68H69.0137C69.5403 68 69.9676 67.5728 69.9676 67.0461V64.3834H71.6725C73.6127 64.3834 75.1907 62.8064 75.1907 60.8672V8.51816C75.1926 6.57795 73.6147 5 71.6745 5ZM19.3264 6.90772H71.6745C72.5604 6.90772 73.2839 7.63025 73.2839 8.51816V18.0558H17.7169V8.51816C17.7169 7.63123 18.4385 6.90772 19.3264 6.90772ZM29.3414 66.0913H22.94V64.3844H29.3424V66.0913H29.3414ZM68.0598 66.0913H61.6575V64.3844H68.0598V66.0913ZM71.6745 62.4747H19.3264C18.4395 62.4747 17.7169 61.7541 17.7169 60.8672V19.9655H73.2839V60.8672C73.2839 61.7532 72.5604 62.4747 71.6745 62.4747Z" fill="white"/>
<path d="M60.7036 16.3222C62.82 16.3222 64.5427 14.5995 64.5427 12.4831C64.5427 10.3667 62.82 8.64404 60.7036 8.64404C58.5862 8.64404 56.8636 10.3667 56.8636 12.4831C56.8636 14.5995 58.5862 16.3222 60.7036 16.3222ZM60.7036 10.5527C61.7668 10.5527 62.634 11.419 62.634 12.4831C62.634 13.5472 61.7668 14.4135 60.7036 14.4135C59.6385 14.4135 58.7733 13.5472 58.7733 12.4831C58.7733 11.419 59.6395 10.5527 60.7036 10.5527ZM45.5 16.3222C47.6164 16.3222 49.338 14.5995 49.338 12.4831C49.338 10.3667 47.6164 8.64404 45.5 8.64404C43.3836 8.64404 41.6609 10.3667 41.6609 12.4831C41.6609 14.5995 43.3836 16.3222 45.5 16.3222ZM45.5 10.5527C46.5631 10.5527 47.4293 11.419 47.4293 12.4831C47.4293 13.5472 46.5641 14.4135 45.5 14.4135C44.4359 14.4135 43.5696 13.5472 43.5696 12.4831C43.5696 11.419 44.4359 10.5527 45.5 10.5527ZM30.2963 16.3222C32.4137 16.3222 34.1344 14.5995 34.1344 12.4831C34.1344 10.3667 32.4137 8.64404 30.2963 8.64404C28.1799 8.64404 26.4572 10.3667 26.4572 12.4831C26.4572 14.5995 28.1799 16.3222 30.2963 16.3222ZM30.2963 10.5527C31.3604 10.5527 32.2266 11.419 32.2266 12.4831C32.2266 13.5472 31.3604 14.4135 30.2963 14.4135C29.2322 14.4135 28.3659 13.5472 28.3659 12.4831C28.3659 11.419 29.2322 10.5527 30.2963 10.5527ZM66.353 32.0259H24.6499C24.1223 32.0259 23.6951 32.4541 23.6951 32.9807V56.2179C23.6951 56.7455 24.1223 57.1727 24.6499 57.1727H66.353C66.8816 57.1727 67.3088 56.7455 67.3088 56.2179V32.9807C67.3078 32.4541 66.8816 32.0259 66.353 32.0259ZM65.3991 55.264H25.6048V33.9356H65.3991V55.264Z" fill="white"/>
</g>
<defs>
<filter id="filter0_d_0_1167" x="-1" y="0" width="93" height="93" filterUnits="userSpaceOnUse" color-interpolation-filters="sRGB">
<feFlood flood-opacity="0" result="BackgroundImageFix"/>
<feColorMatrix in="SourceAlpha" type="matrix" values="0 0 0 0 0 0 0 0 0 0 0 0 0 0 0 0 0 0 127 0" result="hardAlpha"/>
<feOffset dy="10"/>
<feGaussianBlur stdDeviation="7.5"/>
<feComposite in2="hardAlpha" operator="out"/>
<feColorMatrix type="matrix" values="0 0 0 0 0 0 0 0 0 0 0 0 0 0 0 0 0 0 0.25 0"/>
<feBlend mode="normal" in2="BackgroundImageFix" result="effect1_dropShadow_0_1167"/>
<feBlend mode="normal" in="SourceGraphic" in2="effect1_dropShadow_0_1167" result="shape"/>
</filter>
</defs>
</svg>
