<svg width="122" height="53" viewBox="0 0 122 53" fill="none" xmlns="http://www.w3.org/2000/svg">
<path d="M106.683 1.95691C110.79 1.95691 114.312 3.42459 117.252 6.34831C120.193 9.2783 121.659 12.7923 121.659 16.9038C121.659 21.0215 120.193 24.5301 117.252 27.4342C116.853 27.8277 116.444 28.1944 116.024 28.5343C109.105 24.9594 101.796 23.2503 101.645 16.9091C102.918 19.4545 103.652 20.8569 106.392 22.2271C106.61 21.8998 106.843 21.5062 107.076 21.1977C108.252 19.6361 108.499 20.238 111.137 19.6594C113.354 19.1737 113.858 18.1908 114.016 15.7169C112.001 13.9952 112.581 15.1839 111.339 12.38C110.576 10.6583 109.933 10.517 107.908 10.085L108.115 6.68102C103.567 7.75427 100.394 11.5768 98.7995 15.809C96.8103 21.093 97.4189 24.6598 98.4162 29.3312C97.6083 28.7892 96.8382 28.1577 96.1066 27.4351C93.1847 24.5176 91.7179 21.0099 91.7179 16.9047C91.7179 12.8057 93.1847 9.29082 96.1066 6.3492C99.0473 3.42548 102.568 1.9578 106.682 1.9578L106.683 1.95691Z" fill="#3D4A39"/>
<path d="M109.978 9.22284L110.238 8.59857C111.335 9.05381 112.339 9.73443 113.247 10.6395L113.246 10.6404C114.165 11.5527 114.853 12.5562 115.312 13.6509C115.772 14.7474 116 15.9325 116 17.2043C116 18.4877 115.771 19.6781 115.31 20.7746C114.851 21.8685 114.163 22.8657 113.245 23.7646C112.331 24.6652 111.326 25.3396 110.233 25.7903C109.135 26.2429 107.951 26.4683 106.683 26.4683C105.395 26.4683 104.2 26.2438 103.098 25.7921C101.998 25.3413 100.997 24.6652 100.094 23.7628L100.093 23.7637C99.1846 22.8585 98.5014 21.8577 98.0445 20.7612C97.5876 19.6656 97.3587 18.4797 97.3587 17.2043C97.3587 15.9387 97.5876 14.7582 98.0436 13.6616C98.4996 12.5669 99.1828 11.5599 100.091 10.6422C100.989 9.73532 101.987 9.05381 103.087 8.59857L103.347 9.22284C102.331 9.6432 101.406 10.2746 100.574 11.1154C99.7276 11.9704 99.093 12.9059 98.6702 13.921C98.2492 14.9326 98.0382 16.0273 98.0382 17.2043C98.0382 18.392 98.2492 19.4912 98.6711 20.5019C99.093 21.5134 99.7276 22.4418 100.573 23.2852V23.2861C101.412 24.125 102.34 24.7519 103.355 25.1687C104.37 25.5846 105.479 25.7921 106.682 25.7921C107.864 25.7921 108.962 25.5846 109.974 25.1669C110.985 24.7502 111.917 24.1232 112.767 23.2852L112.768 23.2843C113.621 22.4498 114.258 21.5268 114.683 20.5171C115.107 19.5046 115.319 18.401 115.319 17.2052C115.319 16.021 115.108 14.9227 114.684 13.9103C114.259 12.897 113.621 11.9659 112.766 11.118H112.765C111.919 10.2746 110.989 9.64231 109.977 9.22284H109.978ZM106.683 1.95691C108.781 1.95691 110.731 2.33255 112.535 3.08293C114.338 3.83242 115.99 4.95487 117.491 6.44759H117.492C118.993 7.94299 120.12 9.59133 120.872 11.3917C121.624 13.193 121.999 15.1427 121.999 17.2418C121.999 19.3445 121.623 21.2943 120.872 23.092C120.121 24.8879 118.994 26.5282 117.491 28.012C115.996 29.4895 114.347 30.5976 112.544 31.3373C110.739 32.0769 108.786 32.4472 106.683 32.4472V32.4463C104.571 32.44 102.612 32.0671 100.808 31.3274C99.0041 30.5878 97.3569 29.4832 95.8686 28.0129L95.8677 28.012C94.3749 26.5219 93.2537 24.8789 92.5051 23.0839C91.7555 21.2871 91.3794 19.3401 91.3794 17.2436C91.3794 15.1499 91.7555 13.2037 92.5051 11.4024C93.2537 9.60385 94.3749 7.95372 95.8677 6.45027L95.8686 6.44938C97.3704 4.95666 99.0221 3.83421 100.825 3.08472C102.63 2.33434 104.582 1.9587 106.684 1.9587L106.683 1.95691ZM112.275 3.70631C110.556 2.99171 108.693 2.63306 106.683 2.63306C104.67 2.63306 102.805 2.99081 101.085 3.70631C99.3641 4.42182 97.7851 5.49507 96.3471 6.92518C94.9189 8.36424 93.8453 9.94192 93.1307 11.66C92.4162 13.3763 92.0589 15.2366 92.0589 17.2418C92.0589 19.2506 92.4171 21.1109 93.1307 22.8228C93.8453 24.5364 94.918 26.1069 96.3471 27.5335C97.7725 28.9412 99.3452 29.9975 101.065 30.7023C102.788 31.4088 104.661 31.7648 106.683 31.7701V31.7684C108.7 31.7684 110.568 31.416 112.286 30.7121C114.006 30.0073 115.581 28.9475 117.013 27.5326C118.451 26.1123 119.528 24.5453 120.245 22.8317C120.962 21.119 121.32 19.256 121.32 17.241C121.32 15.2295 120.962 13.3656 120.245 11.6493C119.529 9.93298 118.451 8.35798 117.012 6.92429L117.013 6.9234C115.575 5.49328 113.996 4.42003 112.275 3.70453V3.70631Z" fill="#3D4A39"/>
<path d="M103.317 9.14949L103.348 9.22283C103.271 9.25502 103.194 9.28812 103.118 9.3221C101.176 11.0438 99.7223 13.3575 98.7995 15.8081C98.5033 16.5952 98.2645 17.3438 98.0769 18.0638C98.155 18.9268 98.3534 19.7398 98.6712 20.5018C99.0931 21.5134 99.7277 22.4417 100.573 23.2851V23.286C101.412 24.125 102.34 24.7519 103.355 25.1687C104.37 25.5846 105.479 25.7921 106.682 25.7921C107.629 25.7921 108.521 25.6588 109.36 25.3914C105.081 23.3415 101.746 21.1717 101.644 16.9082C102.917 19.4536 103.651 20.856 106.391 22.2262C106.609 21.8989 106.842 21.5053 107.075 21.1977C108.251 19.6361 108.498 20.2371 111.136 19.6593C113.353 19.1737 113.857 18.1908 114.015 15.7169C112 13.9952 112.58 15.1839 111.338 12.38C110.575 10.6583 109.933 10.517 107.907 10.085L108.114 6.681C106.289 7.11209 104.685 7.9859 103.317 9.15038L103.317 9.14949Z" fill="#DDD5C1"/>
<path d="M110.22 25.7966C109.125 26.2455 107.946 26.4691 106.683 26.4691C105.395 26.4691 104.2 26.2438 103.098 25.793C101.998 25.3422 100.997 24.6661 100.094 23.7636L100.093 23.7645C99.1847 22.8594 98.5015 21.8586 98.0446 20.7621C97.9136 20.4482 97.8014 20.1271 97.708 19.7989C97.1748 23.0893 97.682 25.886 98.3983 29.2489C99.2439 29.8365 100.133 30.3221 101.064 30.704C102.787 31.4106 104.66 31.7665 106.682 31.7719V31.771C108.699 31.771 110.567 31.4186 112.285 30.7148C113.589 30.1799 114.811 29.4412 115.95 28.4976C114.013 27.5013 112.047 26.648 110.219 25.7975L110.22 25.7966Z" fill="#AE7B3C"/>
<path d="M75.3491 2.01234C79.4442 2.01234 82.972 3.46123 85.937 6.36618L81.7108 10.5769C79.9191 8.81678 77.8087 7.93313 75.3868 7.93313C72.9083 7.93313 70.7979 8.81678 69.0565 10.5769C67.3025 12.3245 66.4219 14.4335 66.4219 16.9029C66.4219 19.366 67.3025 21.4749 69.0565 23.2225C70.7854 24.9702 72.8958 25.8475 75.3868 25.8475C77.2162 25.8475 78.8769 25.3377 80.3751 24.3173C81.7548 23.3844 82.7853 22.1779 83.472 20.7093H75.0564V15.0801H90.2018C90.5887 20.0931 89.1596 24.2117 85.9002 27.4333C82.9594 30.3382 79.4388 31.7871 75.3311 31.7871C71.1857 31.7871 67.6651 30.3382 64.7746 27.4333C61.8528 24.5409 60.386 21.0331 60.386 16.9029C60.386 12.8039 61.8528 9.28901 64.7746 6.34739C67.6777 3.42367 71.1983 1.95599 75.3311 1.95599L75.35 2.01234H75.3491Z" fill="#3D4A39"/>
<path d="M75.5933 1.67606C77.5914 1.70379 79.4595 2.07406 81.1956 2.78867C83.0016 3.53101 84.6605 4.64361 86.1749 6.12649L86.419 6.36529L81.7135 11.0536L81.4738 10.8184C80.6094 9.96964 79.6686 9.33195 78.6534 8.90712C77.6417 8.48408 76.5529 8.27211 75.3868 8.27211C74.1929 8.27211 73.0897 8.48408 72.0771 8.90712C71.0628 9.33105 70.1364 9.96696 69.298 10.8139L69.2971 10.8166C68.4506 11.66 67.8159 12.5884 67.394 13.6008C66.973 14.6124 66.7621 15.7133 66.7621 16.9029C66.7621 18.0906 66.973 19.1898 67.3949 20.2004C67.8168 21.212 68.4515 22.1403 69.2971 22.9829L69.298 22.9855C70.1301 23.8271 71.0538 24.4586 72.0672 24.8789C73.0789 25.2984 74.1857 25.5086 75.3868 25.5086C76.2692 25.5086 77.1085 25.386 77.9056 25.1419C78.7036 24.8968 79.4631 24.5292 80.1839 24.0382H80.1848C80.8464 23.591 81.4253 23.0768 81.9218 22.499C82.3033 22.0545 82.6363 21.5706 82.9209 21.0483H74.7162V14.742H90.516L90.5402 15.0551C90.7368 17.6058 90.4702 19.9339 89.7377 22.0384C89.0034 24.1473 87.805 26.0255 86.139 27.673C84.6372 29.1568 82.9846 30.2694 81.1821 31.0117C79.3778 31.7549 77.4281 32.1261 75.3311 32.1261C73.2145 32.1261 71.254 31.7549 69.4515 31.0108C67.6499 30.2676 66.0107 29.155 64.535 27.6721C63.0422 26.1937 61.921 24.5579 61.1714 22.7619C60.4219 20.9651 60.0458 19.0118 60.0458 16.9029C60.0458 14.8091 60.4219 12.863 61.1714 11.0617C61.9201 9.26308 63.0413 7.61295 64.5341 6.1095C66.0179 4.61499 67.6615 3.49165 69.464 2.74216C71.2656 1.99267 73.2216 1.61703 75.3311 1.61703H75.5744L75.5933 1.67517V1.67606ZM80.9388 3.41205C79.2171 2.7046 77.3545 2.35043 75.35 2.35043H75.1067L75.0888 2.29587C73.1606 2.32359 71.3725 2.68045 69.7243 3.36644C68.0053 4.08194 66.4353 5.1552 65.0143 6.58531C63.5853 8.02437 62.5125 9.60205 61.7971 11.321C61.0826 13.0374 60.7253 14.8977 60.7253 16.9029C60.7253 18.9242 61.0835 20.7907 61.7971 22.5026C62.5116 24.2162 63.5844 25.7796 65.0125 27.1945L65.0134 27.1954C66.4263 28.6157 67.9919 29.6791 69.7073 30.3865C71.4245 31.0949 73.2997 31.449 75.3302 31.449C77.341 31.449 79.2054 31.0958 80.9245 30.3874C82.6435 29.6791 84.2225 28.6148 85.6614 27.1936C87.2539 25.6186 88.3993 23.8271 89.0986 21.8184C89.7691 19.891 90.0312 17.757 89.8849 15.4182H75.3958V20.3704H84.0043L83.779 20.8515C83.4226 21.6136 82.9756 22.3094 82.4361 22.9372C81.9029 23.5588 81.279 24.1116 80.5654 24.5954V24.5963C79.7889 25.1249 78.9685 25.522 78.104 25.7876C77.2387 26.0533 76.3329 26.1856 75.3868 26.1856C74.0978 26.1856 72.9048 25.9576 71.8078 25.5032C70.7109 25.0489 69.7145 24.3674 68.8168 23.4613L68.8159 23.4622C67.9075 22.5571 67.2244 21.5563 66.7675 20.4598C66.3105 19.3642 66.0816 18.1783 66.0816 16.9029C66.0816 15.6248 66.3105 14.438 66.7675 13.3414C67.2244 12.244 67.9075 11.2432 68.8159 10.3381L68.8168 10.339C69.7199 9.42675 70.719 8.74076 71.8141 8.28374C72.911 7.82492 74.1022 7.59596 75.3868 7.59596C76.6426 7.59596 77.8194 7.82581 78.9155 8.28374C79.9137 8.70141 80.8446 9.30869 81.7045 10.1056L85.4532 6.37066C84.069 5.06665 82.5645 4.08105 80.9379 3.41205H80.9388Z" fill="#3D4A39"/>
<path d="M51.8824 18.434V2.12414H57.8249V32.1744L40.0449 15.2983V31.6082H34.1204V1.57678L51.8824 18.434Z" fill="#3D4A39"/>
<path d="M51.2029 16.8564V1.44711H58.5045V33.7512L40.7245 16.876V32.2853H33.4409V0L51.202 16.8564H51.2029ZM52.562 2.80119V20.0108L34.8009 3.15447V30.9312H39.3664V13.7216L57.1463 30.5967V2.80119H52.562V2.80119Z" fill="#3D4A39"/>
<path d="M24.5378 2.19302H30.4624V31.5707H24.5378V2.19302Z" fill="#3D4A39"/>
<path d="M24.5378 1.85403H30.8017V31.9087H24.1976V1.85403H24.5369H24.5378ZM30.1231 2.53108H24.8781V31.2317H30.1231V2.53108V2.53108Z" fill="#3D4A39"/>
<path d="M10.529 16.1695C11.6026 16.1695 12.52 15.7652 13.2884 14.9504C14.0443 14.1357 14.4249 13.1653 14.4249 12.033C14.4249 10.9633 14.0317 10.0242 13.2507 9.20943C12.4455 8.43221 11.2283 8.04673 9.59276 8.04673H6.26513V16.1516H8.54968V16.1704H10.529V16.1695ZM0.340576 2.19302H9.9608C13.082 2.19302 15.6547 3.18847 17.6771 5.18472C18.6699 6.16764 19.3692 7.09422 19.7812 7.97161C20.2803 9.04128 20.5307 10.3354 20.5307 11.8532V12.6179C20.5307 14.5963 19.9123 16.4619 18.6708 18.2158C17.7776 19.4536 16.5981 20.3552 15.1376 20.9276L21.9984 31.5707H14.757L6.28488 18.5772V31.5707H0.341474V2.19302H0.340576Z" fill="#3D4A39"/>
<path d="M10.529 15.8314C11.0191 15.8314 11.4716 15.7402 11.8863 15.5568C12.3028 15.3726 12.687 15.0944 13.0389 14.7224C13.3881 14.3449 13.6502 13.9344 13.8234 13.4899C13.9967 13.0445 14.0847 12.5598 14.0847 12.0339C14.0847 11.5428 13.9949 11.084 13.8172 10.6556C13.6376 10.2254 13.3683 9.82206 13.0093 9.44642C12.6457 9.09672 12.1861 8.83377 11.6305 8.65758C11.0568 8.47512 10.3782 8.38479 9.59186 8.38479H6.60445V15.8126H8.889V15.8314H10.5281H10.529ZM12.1601 16.1748C11.6565 16.3975 11.1134 16.5075 10.529 16.5075H8.21037V16.4888H5.92582V7.70685H9.59276C10.4428 7.70685 11.1897 7.80881 11.8351 8.01452C12.4958 8.2247 13.0461 8.54131 13.4868 8.96703L13.4958 8.97597C13.915 9.41333 14.231 9.88645 14.4428 10.3954C14.6565 10.9078 14.7633 11.4534 14.7633 12.033C14.7633 12.6393 14.6601 13.2055 14.4545 13.7323C14.2489 14.2591 13.9428 14.7411 13.5371 15.1794L13.5344 15.1821C13.1188 15.623 12.661 15.9539 12.1592 16.1748H12.1601ZM0.340579 1.85403H9.9608C11.5622 1.85403 13.0263 2.11072 14.3531 2.62499C15.6834 3.14015 16.871 3.91379 17.9159 4.94501C18.4221 5.44675 18.8557 5.93598 19.2175 6.41537C19.5819 6.89833 19.8719 7.36878 20.0873 7.82849L20.0882 7.82938C20.3494 8.38926 20.5451 9.00638 20.6753 9.67985C20.8045 10.3497 20.8692 11.0742 20.8692 11.8523V12.617C20.8692 13.6419 20.7085 14.6383 20.388 15.606C20.0676 16.5701 19.5873 17.5048 18.9473 18.4099L18.9446 18.4126C18.4796 19.0574 17.9401 19.6146 17.3261 20.0859C16.8144 20.4786 16.2516 20.8113 15.6394 21.0832L22.6178 31.9087H14.5721L6.6233 19.7166V31.9087H0.000366211V1.85403H0.339682H0.340579ZM9.9608 2.53108H0.679895V31.2317H5.94377V17.4359L14.9383 31.2317H21.3763L14.6277 20.7639L15.0128 20.6127C15.7148 20.3373 16.3486 19.984 16.9123 19.552C17.4733 19.1209 17.9679 18.6111 18.3934 18.0217H18.3925C18.994 17.173 19.4437 16.2974 19.7435 15.3949C20.0415 14.497 20.1905 13.5704 20.1905 12.6179V11.8532C20.1905 11.1135 20.1304 10.432 20.0101 9.80775C19.8907 9.18794 19.7112 8.62269 19.4733 8.1129H19.4742C19.2785 7.69612 19.0128 7.26503 18.6771 6.82052C18.3378 6.37065 17.9248 5.90557 17.4392 5.4244C16.4617 4.45936 15.3513 3.73581 14.1098 3.25463C12.8647 2.77256 11.4823 2.53108 9.9617 2.53108H9.9608Z" fill="#3D4A39"/>
<path d="M6.34054 51.2095C6.96441 51.2095 7.52096 51.1048 8.01108 50.8955C8.5012 50.6863 8.91862 50.3929 9.25793 50.0164C9.59814 49.6398 9.85667 49.1891 10.0353 48.6659C10.2139 48.1426 10.3019 47.5667 10.3019 46.9379V37.8179H12.3297V46.9379C12.3297 47.8037 12.1933 48.6059 11.9168 49.3465C11.6403 50.0861 11.2445 50.7247 10.7292 51.2658C10.2139 51.8069 9.58378 52.2326 8.84142 52.5394C8.09905 52.8462 7.26513 53 6.34054 53C5.41595 53 4.58202 52.8462 3.83966 52.5394C3.09729 52.2326 2.46624 51.8069 1.94829 51.2658C1.42944 50.7247 1.03447 50.0861 0.75709 49.3465C0.480611 48.6068 0.340576 47.8037 0.340576 46.9379V37.8179H2.36839V46.9272C2.36839 47.555 2.45905 48.131 2.63769 48.6551C2.81632 49.1783 3.07575 49.6291 3.41506 50.0056C3.75528 50.3822 4.17179 50.6755 4.6655 50.8884C5.15922 51.1013 5.71666 51.2095 6.33964 51.2095H6.34054Z" fill="#AE7B3C"/>
<path d="M23.3969 44.3925H24.1644C24.431 44.3925 24.6447 44.3576 24.8053 44.2914C24.966 44.2252 25.1132 44.1135 25.247 43.9525L30.2595 38.2982C30.3996 38.1166 30.5468 37.9914 30.7012 37.9217C30.8556 37.8519 31.0441 37.817 31.2685 37.817H32.992L27.2542 44.2771C27.1141 44.4444 26.9813 44.5803 26.8511 44.6885C26.7218 44.7968 26.5818 44.8871 26.4346 44.9569C26.624 45.0195 26.7955 45.1107 26.9499 45.2323C27.1042 45.3548 27.2542 45.5149 27.4014 45.7108L33.3915 52.8202H31.6258C31.4929 52.8202 31.3807 52.8095 31.2855 52.7925C31.1913 52.7746 31.1069 52.7469 31.0369 52.7084C30.9669 52.67 30.9076 52.6244 30.8547 52.5725C30.8017 52.5197 30.7496 52.4607 30.7003 52.3909L25.5091 46.4335C25.3691 46.2591 25.2183 46.133 25.0576 46.0596C24.8969 45.9863 24.6509 45.9514 24.3224 45.9514H23.3978V52.8202H21.37V37.8161H23.3978V44.3916L23.3969 44.3925Z" fill="#AE7B3C"/>
<path d="M44.8456 45.0839C45.4345 45.0839 45.956 45.0105 46.4075 44.8674C46.8591 44.7243 47.2379 44.5222 47.5422 44.2601C47.8465 43.9981 48.0745 43.6877 48.2289 43.3246C48.3833 42.9615 48.4605 42.5599 48.4605 42.1208C48.4605 41.2273 48.1661 40.5538 47.5781 40.1004C46.9892 39.6469 46.1068 39.4198 44.93 39.4198H42.702V45.0848H44.8456V45.0839ZM51.8025 52.822H49.9946C49.623 52.822 49.3501 52.6789 49.175 52.3927L45.2657 47.0318C45.1463 46.8646 45.0207 46.742 44.8842 46.6687C44.7478 46.5954 44.5341 46.5605 44.2469 46.5605H42.702V52.822H40.6742V37.8179H44.93C45.8824 37.8179 46.7065 37.9118 47.3995 38.1041C48.0934 38.2964 48.6679 38.5755 49.1194 38.9386C49.5709 39.3017 49.9039 39.7382 50.1212 40.2506C50.3384 40.764 50.447 41.34 50.447 41.975C50.447 42.5054 50.3626 43.0009 50.1948 43.4615C50.0269 43.9221 49.7845 44.3344 49.4659 44.7002C49.1472 45.0669 48.7585 45.3808 48.2998 45.6393C47.8411 45.8977 47.3187 46.0927 46.737 46.226C46.9964 46.3727 47.2208 46.5855 47.4093 46.8646L51.8025 52.822V52.822Z" fill="#AE7B3C"/>
<path d="M66.5142 47.2509L64.1498 41.1468C64.0798 40.9653 64.0062 40.7524 63.929 40.5118C63.8518 40.2712 63.7782 40.0163 63.7082 39.7435C63.5609 40.3088 63.4101 40.7801 63.2566 41.1566L60.8922 47.25H66.5142V47.2509ZM70.7602 52.8211H69.1839C69.0017 52.8211 68.8544 52.7755 68.7422 52.6852C68.63 52.5949 68.5456 52.4795 68.49 52.34L67.0816 48.7168H60.324L58.9155 52.34C58.8733 52.4652 58.7926 52.577 58.6741 52.6754C58.5547 52.7728 58.4075 52.822 58.2324 52.822H56.6561L62.6776 37.8179H64.7378L70.7593 52.822L70.7602 52.8211Z" fill="#AE7B3C"/>
<path d="M79.4612 52.822H77.4226V37.817H79.4612V52.822Z" fill="#AE7B3C"/>
<path d="M100.889 37.817V52.8211H99.8695C99.7079 52.8211 99.5751 52.7934 99.4665 52.737C99.3578 52.6816 99.2492 52.5868 99.1442 52.4544L90.4324 41.1459C90.4467 41.3203 90.4566 41.4911 90.4638 41.6593C90.471 41.8265 90.4746 41.9839 90.4746 42.1306V52.8211H88.6882V37.817H89.7394C89.8301 37.817 89.9073 37.8206 89.971 37.8313C90.0338 37.8421 90.0904 37.8591 90.1389 37.8841C90.1882 37.9082 90.2367 37.9431 90.2861 37.9887C90.3354 38.0344 90.3875 38.0934 90.4441 38.1631L99.1559 49.4609C99.1415 49.2794 99.1316 49.1014 99.1208 48.9306C99.1101 48.7597 99.1029 48.5988 99.1029 48.4458V37.8179H100.889V37.817Z" fill="#AE7B3C"/>
<path d="M117.41 47.2509L115.045 41.1468C114.975 40.9653 114.902 40.7524 114.824 40.5118C114.747 40.2712 114.674 40.0163 114.604 39.7435C114.456 40.3088 114.306 40.7801 114.152 41.1566L111.788 47.25H117.41V47.2509ZM121.656 52.8211H120.079C119.897 52.8211 119.75 52.7755 119.638 52.6852C119.526 52.5949 119.441 52.4795 119.385 52.34L117.977 48.7168H111.219L109.811 52.34C109.769 52.4652 109.688 52.577 109.57 52.6754C109.45 52.7728 109.303 52.822 109.128 52.822H107.552L113.573 37.8179H115.633L121.655 52.822L121.656 52.8211Z" fill="#AE7B3C"/>
</svg>
